<svg width="14" height="14" viewBox="0 0 14 14" fill="none" xmlns="http://www.w3.org/2000/svg">
<path fill-rule="evenodd" clip-rule="evenodd" d="M6.92147 1.53521C7.00614 1.68544 6.99466 1.87139 6.89215 2.01006C6.3731 2.71228 6.12332 3.57748 6.18826 4.4483C6.2532 5.31911 6.62854 6.1377 7.24601 6.75516C7.86348 7.37263 8.68206 7.74797 9.55287 7.81291C10.4237 7.87785 11.2889 7.62808 11.9911 7.10902C12.1298 7.00652 12.3157 6.99504 12.466 7.0797C12.6162 7.16437 12.7027 7.32939 12.6868 7.5011C12.5874 8.5768 12.1837 9.60194 11.5229 10.4566C10.8622 11.3112 9.97165 11.96 8.95562 12.327C7.93959 12.694 6.84005 12.764 5.78566 12.5289C4.73127 12.2938 3.76564 11.7633 3.00177 10.9994C2.23789 10.2355 1.70737 9.2699 1.47226 8.21551C1.23716 7.16112 1.3072 6.06158 1.6742 5.04555C2.0412 4.02952 2.68997 3.13902 3.5446 2.47825C4.39923 1.81748 5.42437 1.41377 6.50007 1.31436C6.67179 1.2985 6.8368 1.38498 6.92147 1.53521Z" fill="#FAFBFF"/>
</svg>
